<?xml version="1.0" encoding="utf-8"?>
<!-- Generator: Adobe Illustrator 17.1.0, SVG Export Plug-In . SVG Version: 6.00 Build 0)  -->
<!DOCTYPE svg PUBLIC "-//W3C//DTD SVG 1.1//EN" "http://www.w3.org/Graphics/SVG/1.1/DTD/svg11.dtd">
<svg version="1.1" id="Layer_1" xmlns="http://www.w3.org/2000/svg" xmlns:xlink="http://www.w3.org/1999/xlink" x="0px" y="0px"
	 viewBox="0 0 222 54.3" enable-background="new 0 0 222 54.3" xml:space="preserve">
<path fill="#FFFFFF" d="M30.5,3.4l11.7,48H28.9l-1.3-8.4h-9.9l-1.3,8.4H3.3l11.5-48H30.5z M22.5,13.2l-3.4,20.4h7l-3.4-20.4H22.5z"
	/>
<path fill="#FFFFFF" d="M75.1,3.4v10.2H59.2v8.2h14.9v9.8H59.2v19.8H46.7v-48H75.1z"/>
<path fill="#FFFFFF" d="M90.6,3.4v37.8H106v10.2H78.1v-48H90.6z"/>
<path fill="#FFFFFF" d="M129.3,26.8V37h-21V26.8H129.3z"/>
<path fill="#FFFFFF" d="M152,12.4c-0.5-1-1.4-1.5-2.6-1.5c-0.9,0-1.7,0.2-2.3,0.7c-0.6,0.5-1,1.4-1.3,2.6c-0.3,1.3-0.5,2.9-0.6,5.1
	c-0.1,2.1-0.1,4.8-0.1,8s0,5.9,0.1,8c0.1,2.1,0.3,3.8,0.6,5.1c0.3,1.3,0.7,2.1,1.3,2.6c0.6,0.5,1.3,0.7,2.3,0.7
	c0.8,0,1.4-0.2,1.9-0.6c0.5-0.4,0.9-1,1.1-1.9c0.3-0.9,0.5-2.1,0.6-3.6c0.1-1.5,0.2-3.4,0.2-5.7h12.1v3.6c0,3.4-0.4,6.1-1.3,8.3
	c-0.9,2.2-2.1,3.8-3.6,5.1c-1.5,1.2-3.2,2.1-5.1,2.5c-1.9,0.4-3.9,0.6-5.9,0.6c-3.5,0-6.4-0.4-8.6-1.3c-2.2-0.8-4-2.3-5.2-4.3
	c-1.3-2-2.1-4.6-2.6-7.7c-0.5-3.2-0.7-7-0.7-11.5c0-4.6,0.3-8.4,0.8-11.6c0.6-3.2,1.5-5.8,2.9-7.7c1.3-2,3.1-3.4,5.3-4.3
	c2.2-0.9,4.9-1.3,8.1-1.3c2.8,0,5.2,0.4,7.2,1.1c2,0.7,3.6,1.7,4.8,3.1c1.2,1.3,2.1,2.9,2.7,4.8c0.6,1.9,0.8,4,0.8,6.3v3h-12.1v-2.7
	C152.8,15.2,152.5,13.3,152,12.4z"/>
<path fill="#FFFFFF" d="M181.6,3.4v48h-12.5v-48H181.6z"/>
<path fill="#FFFFFF" d="M185.5,15.9c0.6-3.2,1.5-5.7,2.9-7.7c1.3-2,3.1-3.4,5.3-4.4c2.2-0.9,4.9-1.4,8.1-1.4c3.2,0,5.9,0.5,8.1,1.4
	c2.2,0.9,4,2.4,5.3,4.4c1.3,2,2.3,4.6,2.9,7.7c0.6,3.2,0.9,7,0.9,11.5c0,4.5-0.3,8.3-0.9,11.5c-0.6,3.2-1.5,5.7-2.9,7.7
	c-1.3,2-3.1,3.4-5.3,4.3c-2.2,0.9-4.9,1.3-8.1,1.3c-3.2,0-5.9-0.4-8.1-1.3c-2.2-0.8-4-2.3-5.3-4.3c-1.3-2-2.3-4.6-2.9-7.7
	c-0.6-3.2-0.9-7-0.9-11.5C184.7,22.9,184.9,19,185.5,15.9z M197.7,35.4c0.1,2.1,0.3,3.8,0.6,5.1c0.3,1.3,0.7,2.1,1.3,2.6
	c0.6,0.5,1.3,0.7,2.3,0.7c0.9,0,1.7-0.2,2.3-0.7c0.6-0.5,1-1.4,1.3-2.6c0.3-1.3,0.5-2.9,0.6-5.1c0.1-2.1,0.1-4.8,0.1-8s0-5.9-0.1-8
	c-0.1-2.1-0.3-3.8-0.6-5.1c-0.3-1.3-0.7-2.1-1.3-2.6c-0.6-0.5-1.3-0.7-2.3-0.7c-0.9,0-1.7,0.2-2.3,0.7c-0.6,0.5-1,1.4-1.3,2.6
	c-0.3,1.3-0.5,2.9-0.6,5.1c-0.1,2.1-0.1,4.8-0.1,8S197.6,33.3,197.7,35.4z"/>
</svg>
