<?xml version="1.0" encoding="utf-8"?>
<!-- Generator: Adobe Illustrator 17.1.0, SVG Export Plug-In . SVG Version: 6.00 Build 0)  -->
<!DOCTYPE svg PUBLIC "-//W3C//DTD SVG 1.1//EN" "http://www.w3.org/Graphics/SVG/1.1/DTD/svg11.dtd">
<svg version="1.1" id="Layer_1" xmlns="http://www.w3.org/2000/svg" xmlns:xlink="http://www.w3.org/1999/xlink" x="0px" y="0px"
	 viewBox="0 0 400 400" enable-background="new 0 0 400 400" xml:space="preserve">
<g>
	<path fill="#FFFFFF" d="M248.4,199.8c0,26.7-21.6,48.3-48.3,48.3c-26.7,0-48.3-21.6-48.3-48.3c0-26.7,21.6-48.3,48.3-48.3
		C226.8,151.5,248.4,173.1,248.4,199.8z"/>
	<g>
		<path fill="#FFFFFF" d="M155.1,34.2c9.7-24.8,37.8-37.1,62.6-27.4c24.8,9.7,37.1,37.8,27.4,62.6c-9.7,24.8-37.8,37.1-62.6,27.4
			C157.6,87.1,145.4,59.1,155.1,34.2z"/>
		<path fill="#FFFFFF" d="M51.2,114.5c-10.7-24.4,0.5-52.9,24.9-63.6c24.4-10.7,52.9,0.5,63.6,24.9c10.7,24.4-0.5,52.9-24.9,63.6
			C90.4,150.1,61.9,139,51.2,114.5z"/>
		<path fill="#FFFFFF" d="M34.5,244.8C9.7,235-2.6,207,7.2,182.2c9.7-24.8,37.8-37.1,62.6-27.3c24.8,9.7,37.1,37.8,27.3,62.6
			C87.4,242.2,59.4,254.5,34.5,244.8z"/>
		<path fill="#FFFFFF" d="M114.8,348.7c-24.4,10.7-52.9-0.5-63.6-24.9c-10.7-24.4,0.5-52.9,24.9-63.6c24.4-10.7,52.9,0.5,63.6,24.9
			C150.4,309.5,139.2,338,114.8,348.7z"/>
		<path fill="#FFFFFF" d="M245,365.4c-9.7,24.8-37.8,37.1-62.6,27.3c-24.8-9.7-37.1-37.8-27.3-62.6c9.7-24.8,37.8-37.1,62.6-27.3
			C242.5,312.5,254.8,340.6,245,365.4z"/>
		<path fill="#FFFFFF" d="M348.9,285.1c10.7,24.4-0.5,52.9-24.9,63.6c-24.4,10.7-52.9-0.5-63.6-25c-10.7-24.4,0.5-52.9,24.9-63.6
			C309.8,249.5,338.3,260.7,348.9,285.1z"/>
		<path fill="#FFFFFF" d="M365.7,154.9c24.8,9.7,37.1,37.8,27.3,62.6c-9.7,24.8-37.8,37.1-62.6,27.3c-24.8-9.7-37.1-37.8-27.3-62.6
			C312.8,157.4,340.9,145.2,365.7,154.9z"/>
		<path fill="#FFFFFF" d="M285.5,51c24.4-10.7,52.9,0.5,63.6,25c10.7,24.4-0.5,52.9-25,63.6c-24.4,10.7-52.9-0.5-63.6-25
			C249.8,90.1,261,61.6,285.5,51z"/>
	</g>
</g>
</svg>
