<?xml version="1.0" encoding="utf-8"?>
<!-- Generator: Adobe Illustrator 15.0.0, SVG Export Plug-In . SVG Version: 6.00 Build 0)  -->
<!DOCTYPE svg PUBLIC "-//W3C//DTD SVG 1.1//EN" "http://www.w3.org/Graphics/SVG/1.1/DTD/svg11.dtd">
<svg version="1.1" id="Layer_1" xmlns="http://www.w3.org/2000/svg" xmlns:xlink="http://www.w3.org/1999/xlink" x="0px" y="0px"
	 width="400px" height="400px" viewBox="0 0 400 400" enable-background="new 0 0 400 400" xml:space="preserve">
<g>
	<circle fill="#FFFFFF" cx="199.371" cy="200.505" r="45.641"/>
	<g>
		<circle fill="#FFFFFF" cx="199.371" cy="60.722" r="45.641"/>
		<circle fill="#FFFFFF" cx="100.536" cy="101.651" r="45.641"/>
		<circle fill="#FFFFFF" cx="59.592" cy="200.481" r="45.641"/>
		<path fill="#FFFFFF" d="M100.507,253.686c25.203,0,45.636,20.426,45.636,45.632s-20.433,45.637-45.636,45.637
			s-45.636-20.431-45.636-45.637S75.304,253.686,100.507,253.686z"/>
		<path fill="#FFFFFF" d="M199.325,294.654c25.201,0,45.631,20.436,45.631,45.636c0,25.201-20.431,45.627-45.631,45.627
			s-45.629-20.426-45.629-45.627C153.695,315.09,174.124,294.654,199.325,294.654z"/>
		<path fill="#FFFFFF" d="M298.171,253.754c25.201,0,45.637,20.431,45.637,45.636c0,25.201-20.436,45.637-45.637,45.637
			c-25.205,0-45.636-20.436-45.636-45.637C252.535,274.185,272.966,253.754,298.171,253.754z"/>
		<circle fill="#FFFFFF" cx="339.153" cy="200.579" r="45.635"/>
		<circle fill="#FFFFFF" cx="298.272" cy="101.721" r="45.636"/>
	</g>
</g>
</svg>
